<svg xmlns="http://www.w3.org/2000/svg" xmlns:xlink="http://www.w3.org/1999/xlink" width="500" zoomAndPan="magnify" viewBox="0 0 375 374.999991" height="500" preserveAspectRatio="xMidYMid meet" version="1.0"><defs><g/><clipPath id="09f44ad178"><path d="M 41.25 139 L 189 139 L 189 243 L 41.25 243 Z M 41.25 139 " clip-rule="nonzero"/></clipPath><clipPath id="03ef38db3e"><path d="M 66 105.261719 L 189 105.261719 L 189 243 L 66 243 Z M 66 105.261719 " clip-rule="nonzero"/></clipPath></defs><rect x="-37.5" width="450" fill="#ffffff" y="-37.499999" height="449.999989" fill-opacity="1"/><rect x="-37.5" width="450" fill="#664229" y="-37.499999" height="449.999989" fill-opacity="1"/><g clip-path="url(#09f44ad178)"><path fill="#d89b64" d="M 187.539062 240.035156 C 187.539062 240.035156 174.773438 233.082031 152.375 231.980469 C 142.511719 231.496094 130.765625 232.148438 117.414062 235.046875 C 117.414062 235.046875 45.449219 144.578125 45.449219 144.578125 C 47.265625 144.164062 50.238281 143.558594 54.109375 143.019531 C 57.222656 142.585938 60.902344 142.195312 65.03125 141.96875 C 65.789062 141.929688 66.371094 141.28125 66.328125 140.523438 C 66.285156 139.765625 65.640625 139.1875 64.882812 139.226562 C 60.667969 139.457031 56.90625 139.855469 53.734375 140.300781 C 46.808594 141.265625 42.667969 142.429688 42.667969 142.429688 C 42.222656 142.554688 41.875 142.894531 41.734375 143.332031 C 41.589844 143.769531 41.675781 144.246094 41.964844 144.609375 L 115.796875 237.425781 C 116.125 237.835938 116.65625 238.023438 117.171875 237.910156 C 130.589844 234.917969 142.378906 234.238281 152.242188 234.722656 C 173.882812 235.789062 186.230469 242.445312 186.230469 242.445312 C 186.898438 242.808594 187.730469 242.5625 188.089844 241.894531 C 188.453125 241.226562 188.203125 240.394531 187.539062 240.035156 Z M 187.539062 240.035156 " fill-opacity="1" fill-rule="evenodd"/></g><g clip-path="url(#03ef38db3e)"><path fill="#e5d3b3" d="M 188.195312 240.433594 C 188.195312 240.433594 180.296875 227.132812 160.527344 218.707031 C 151.769531 214.976562 140.671875 212.195312 126.878906 211.980469 C 126.878906 211.980469 78.121094 123.132812 70.082031 108.488281 C 75.21875 108.566406 88.421875 109.21875 103.28125 113.488281 C 113.863281 116.527344 125.285156 121.402344 135.21875 129.234375 C 135.816406 129.707031 136.679688 129.601562 137.148438 129.007812 C 137.617188 128.410156 137.515625 127.546875 136.921875 127.078125 C 126.691406 119.015625 114.933594 113.976562 104.039062 110.851562 C 84.484375 105.230469 67.726562 105.746094 67.726562 105.746094 C 67.246094 105.761719 66.8125 106.023438 66.574219 106.441406 C 66.339844 106.851562 66.332031 107.363281 66.5625 107.777344 L 124.859375 214.003906 C 125.097656 214.441406 125.554688 214.710938 126.050781 214.71875 C 139.78125 214.832031 150.800781 217.546875 159.449219 221.230469 C 178.269531 229.253906 185.835938 241.839844 185.835938 241.839844 C 186.226562 242.492188 187.070312 242.707031 187.722656 242.316406 C 188.371094 241.925781 188.585938 241.082031 188.195312 240.433594 Z M 188.195312 240.433594 " fill-opacity="1" fill-rule="evenodd"/></g><path fill="#e5d3b3" d="M 187.875 240.238281 C 187.875 240.238281 177.714844 231.476562 156.105469 227.304688 C 147.058594 225.558594 135.996094 224.617188 122.808594 225.476562 C 122.808594 225.476562 58.082031 126.714844 58.082031 126.714844 C 59.953125 126.582031 62.925781 126.4375 66.738281 126.476562 C 69.878906 126.511719 73.578125 126.671875 77.691406 127.0625 C 78.445312 127.136719 79.117188 126.582031 79.191406 125.824219 C 79.261719 125.070312 78.707031 124.402344 77.953125 124.328125 C 73.75 123.929688 69.972656 123.765625 66.769531 123.730469 C 59.777344 123.65625 55.507812 124.191406 55.507812 124.191406 C 55.039062 124.25 54.628906 124.550781 54.433594 124.980469 C 54.234375 125.410156 54.269531 125.914062 54.53125 126.308594 L 120.957031 227.652344 C 121.226562 228.066406 121.703125 228.304688 122.195312 228.269531 C 135.453125 227.339844 146.550781 228.261719 155.582031 230 C 176.3125 234 186.085938 242.324219 186.085938 242.324219 C 186.664062 242.816406 187.53125 242.75 188.023438 242.175781 C 188.515625 241.597656 188.449219 240.730469 187.875 240.238281 Z M 187.875 240.238281 " fill-opacity="1" fill-rule="evenodd"/><g fill="#ffffff" fill-opacity="1"><g transform="translate(131.93311, 179.426664)"><g><path d="M 24.421875 -7.5625 C 24.421875 -4.957031 23.375 -2.992188 21.28125 -1.671875 C 19.5625 -0.554688 17.3125 0 14.53125 0 L 1.078125 0 L 1.078125 -1.03125 L 4.90625 -1.03125 L 4.90625 -26.703125 L 1.078125 -26.703125 L 1.078125 -27.734375 L 14.1875 -27.734375 C 16.476562 -27.734375 18.515625 -27.234375 20.296875 -26.234375 C 22.390625 -25.085938 23.4375 -23.410156 23.4375 -21.203125 C 23.4375 -18.046875 21.441406 -15.992188 17.453125 -15.046875 C 19.316406 -14.617188 20.9375 -13.773438 22.3125 -12.515625 C 23.71875 -11.109375 24.421875 -9.457031 24.421875 -7.5625 Z M 18.796875 -21.546875 C 18.796875 -24.984375 17.257812 -26.703125 14.1875 -26.703125 L 9.59375 -26.703125 L 9.59375 -15.484375 L 14.1875 -15.484375 C 15.882812 -15.484375 17.101562 -15.957031 17.84375 -16.90625 C 18.476562 -17.707031 18.796875 -19.023438 18.796875 -20.859375 Z M 19.65625 -8.046875 C 19.65625 -12.316406 17.832031 -14.453125 14.1875 -14.453125 L 9.59375 -14.453125 L 9.59375 -1.03125 L 14.1875 -1.03125 C 16.164062 -1.03125 17.570312 -1.53125 18.40625 -2.53125 C 19.238281 -3.539062 19.65625 -5.046875 19.65625 -7.046875 Z M 19.65625 -8.046875 "/></g></g></g><g fill="#ffffff" fill-opacity="1"><g transform="translate(156.268744, 179.426664)"><g><path d="M 29.40625 -13.765625 C 29.40625 -9.921875 28.03125 -6.535156 25.28125 -3.609375 C 22.5625 -0.679688 19.296875 0.78125 15.484375 0.78125 C 11.722656 0.78125 8.441406 -0.710938 5.640625 -3.703125 C 2.941406 -6.566406 1.59375 -9.921875 1.59375 -13.765625 C 1.59375 -17.597656 2.953125 -20.960938 5.671875 -23.859375 C 8.398438 -26.753906 11.671875 -28.203125 15.484375 -28.203125 C 19.296875 -28.203125 22.5625 -26.753906 25.28125 -23.859375 C 28.03125 -20.960938 29.40625 -17.597656 29.40625 -13.765625 Z M 23.609375 -15.78125 C 23.609375 -19.300781 23.132812 -21.925781 22.1875 -23.65625 C 20.894531 -25.945312 18.660156 -27.09375 15.484375 -27.09375 C 12.359375 -27.09375 10.148438 -25.929688 8.859375 -23.609375 C 7.878906 -21.859375 7.390625 -19.25 7.390625 -15.78125 L 7.390625 -11.703125 C 7.390625 -4.128906 10.085938 -0.34375 15.484375 -0.34375 C 20.898438 -0.34375 23.609375 -4.128906 23.609375 -11.703125 Z M 23.609375 -15.78125 "/></g></g></g><g fill="#ffffff" fill-opacity="1"><g transform="translate(184.73201, 179.426664)"><g><path d="M 29.40625 -13.765625 C 29.40625 -9.921875 28.03125 -6.535156 25.28125 -3.609375 C 22.5625 -0.679688 19.296875 0.78125 15.484375 0.78125 C 11.722656 0.78125 8.441406 -0.710938 5.640625 -3.703125 C 2.941406 -6.566406 1.59375 -9.921875 1.59375 -13.765625 C 1.59375 -17.597656 2.953125 -20.960938 5.671875 -23.859375 C 8.398438 -26.753906 11.671875 -28.203125 15.484375 -28.203125 C 19.296875 -28.203125 22.5625 -26.753906 25.28125 -23.859375 C 28.03125 -20.960938 29.40625 -17.597656 29.40625 -13.765625 Z M 23.609375 -15.78125 C 23.609375 -19.300781 23.132812 -21.925781 22.1875 -23.65625 C 20.894531 -25.945312 18.660156 -27.09375 15.484375 -27.09375 C 12.359375 -27.09375 10.148438 -25.929688 8.859375 -23.609375 C 7.878906 -21.859375 7.390625 -19.25 7.390625 -15.78125 L 7.390625 -11.703125 C 7.390625 -4.128906 10.085938 -0.34375 15.484375 -0.34375 C 20.898438 -0.34375 23.609375 -4.128906 23.609375 -11.703125 Z M 23.609375 -15.78125 "/></g></g></g><g fill="#ffffff" fill-opacity="1"><g transform="translate(213.195278, 179.426664)"><g><path d="M 16.5625 -1.03125 L 20.203125 -1.03125 L 9.421875 -15.171875 L 21.9375 -26.703125 L 18.40625 -26.703125 L 18.40625 -27.734375 L 27.515625 -27.734375 L 27.515625 -26.703125 L 23.65625 -26.703125 L 13.453125 -17.328125 L 25.84375 -1.03125 L 29.453125 -1.03125 L 29.453125 0 L 16.5625 0 Z M 1.328125 -1.03125 L 4.859375 -1.03125 L 4.859375 -26.703125 L 1.328125 -26.703125 L 1.328125 -27.734375 L 13.078125 -27.734375 L 13.078125 -26.703125 L 9.546875 -26.703125 L 9.546875 -1.03125 L 13.078125 -1.03125 L 13.078125 0 L 1.328125 0 Z M 1.328125 -1.03125 "/></g></g></g><g fill="#ffffff" fill-opacity="1"><g transform="translate(240.798608, 179.426664)"><g><path d="M 25.625 -1.5 C 25.625 -0.5 25.125 0 24.125 0 L 1.125 0 L 1.125 -1.03125 L 4.9375 -1.03125 L 4.9375 -26.703125 L 1.125 -26.703125 L 1.125 -27.734375 L 13.84375 -27.734375 L 13.84375 -26.703125 L 9.625 -26.703125 L 9.625 -1.03125 L 18.53125 -1.03125 C 20.363281 -1.03125 21.726562 -1.644531 22.625 -2.875 C 23.28125 -3.851562 23.863281 -5.488281 24.375 -7.78125 C 24.519531 -8.4375 24.75 -8.765625 25.0625 -8.765625 C 25.4375 -8.765625 25.625 -8.378906 25.625 -7.609375 Z M 25.625 -1.5 "/></g></g></g><g fill="#ffffff" fill-opacity="1"><g transform="translate(265.177234, 179.426664)"><g><path d="M 15.390625 -1.03125 L 19.859375 -1.03125 L 17.15625 -8.515625 L 8.515625 -8.515625 L 5.84375 -1.03125 L 11.015625 -1.03125 L 11.015625 0 L 0.78125 0 L 0.78125 -1.03125 L 4.640625 -1.03125 L 14.359375 -28.125 L 15.140625 -28.125 L 24.859375 -1.03125 L 28.765625 -1.03125 L 28.765625 0 L 15.390625 0 Z M 8.90625 -9.546875 L 16.765625 -9.546875 L 12.8125 -20.421875 Z M 8.90625 -9.546875 "/></g></g></g><g fill="#ffffff" fill-opacity="1"><g transform="translate(292.307615, 179.426664)"><g><path d="M 24.546875 0.34375 L 22.75 0.34375 L 5.890625 -25.0625 L 5.890625 -1.03125 L 9.71875 -1.03125 L 9.71875 0 L 0.984375 0 L 0.984375 -1.03125 L 4.8125 -1.03125 L 4.8125 -26.703125 L 0.984375 -26.703125 L 0.984375 -27.734375 L 10.015625 -27.734375 L 23.484375 -7.53125 L 23.484375 -26.703125 L 19.65625 -26.703125 L 19.65625 -27.734375 L 28.375 -27.734375 L 28.375 -26.703125 L 24.546875 -26.703125 Z M 24.546875 0.34375 "/></g></g></g><g fill="#ffffff" fill-opacity="1"><g transform="translate(319.266002, 179.426664)"><g><path d="M 28.546875 -14.1875 C 28.546875 -9.945312 27.269531 -6.507812 24.71875 -3.875 C 22.164062 -1.289062 18.753906 0 14.484375 0 L 1.203125 0 L 1.203125 -1.03125 L 5.109375 -1.03125 L 5.109375 -26.703125 L 1.203125 -26.703125 L 1.203125 -27.734375 L 14.484375 -27.734375 C 18.585938 -27.734375 21.941406 -26.515625 24.546875 -24.078125 C 27.210938 -21.523438 28.546875 -18.226562 28.546875 -14.1875 Z M 23.265625 -15.21875 C 23.265625 -18.570312 22.632812 -21.222656 21.375 -23.171875 C 19.882812 -25.523438 17.5625 -26.703125 14.40625 -26.703125 L 9.796875 -26.703125 L 9.796875 -1.03125 L 14.40625 -1.03125 C 20.3125 -1.03125 23.265625 -5.070312 23.265625 -13.15625 Z M 23.265625 -15.21875 "/></g></g></g><g fill="#e5d3b3" fill-opacity="1"><g transform="translate(139.454746, 198.351681)"><g><path d="M 1.84375 -13.5625 L 5.71875 -13.5625 C 7.40625 -13.5625 8.6875 -13.304688 9.5625 -12.796875 C 10.4375 -12.296875 10.875 -11.429688 10.875 -10.203125 C 10.875 -9.398438 10.648438 -8.734375 10.203125 -8.203125 C 9.753906 -7.679688 9.113281 -7.347656 8.28125 -7.203125 L 8.28125 -7.109375 C 8.851562 -7.003906 9.367188 -6.832031 9.828125 -6.59375 C 10.296875 -6.351562 10.660156 -6.007812 10.921875 -5.5625 C 11.191406 -5.125 11.328125 -4.554688 11.328125 -3.859375 C 11.328125 -2.628906 10.90625 -1.675781 10.0625 -1 C 9.21875 -0.332031 8.066406 0 6.609375 0 L 1.84375 0 Z M 3.546875 -7.796875 L 6.0625 -7.796875 C 7.21875 -7.796875 8.007812 -7.976562 8.4375 -8.34375 C 8.875 -8.71875 9.09375 -9.273438 9.09375 -10.015625 C 9.09375 -10.765625 8.832031 -11.300781 8.3125 -11.625 C 7.789062 -11.945312 6.953125 -12.109375 5.796875 -12.109375 L 3.546875 -12.109375 Z M 3.546875 -6.359375 L 3.546875 -1.4375 L 6.28125 -1.4375 C 7.488281 -1.4375 8.328125 -1.671875 8.796875 -2.140625 C 9.265625 -2.609375 9.5 -3.222656 9.5 -3.984375 C 9.5 -4.691406 9.253906 -5.265625 8.765625 -5.703125 C 8.273438 -6.140625 7.40625 -6.359375 6.15625 -6.359375 Z M 3.546875 -6.359375 "/></g></g></g><g fill="#e5d3b3" fill-opacity="1"><g transform="translate(151.802222, 198.351681)"><g><path d="M 13.6875 -6.796875 C 13.6875 -5.390625 13.445312 -4.164062 12.96875 -3.125 C 12.488281 -2.082031 11.785156 -1.269531 10.859375 -0.6875 C 9.929688 -0.101562 8.785156 0.1875 7.421875 0.1875 C 6.015625 0.1875 4.847656 -0.101562 3.921875 -0.6875 C 2.992188 -1.269531 2.300781 -2.085938 1.84375 -3.140625 C 1.382812 -4.191406 1.15625 -5.421875 1.15625 -6.828125 C 1.15625 -8.203125 1.382812 -9.410156 1.84375 -10.453125 C 2.300781 -11.503906 2.992188 -12.320312 3.921875 -12.90625 C 4.847656 -13.488281 6.023438 -13.78125 7.453125 -13.78125 C 8.804688 -13.78125 9.941406 -13.488281 10.859375 -12.90625 C 11.785156 -12.332031 12.488281 -11.519531 12.96875 -10.46875 C 13.445312 -9.425781 13.6875 -8.203125 13.6875 -6.796875 Z M 2.96875 -6.796875 C 2.96875 -5.085938 3.328125 -3.742188 4.046875 -2.765625 C 4.765625 -1.785156 5.890625 -1.296875 7.421875 -1.296875 C 8.960938 -1.296875 10.085938 -1.785156 10.796875 -2.765625 C 11.515625 -3.742188 11.875 -5.085938 11.875 -6.796875 C 11.875 -8.503906 11.519531 -9.84375 10.8125 -10.8125 C 10.101562 -11.789062 8.984375 -12.28125 7.453125 -12.28125 C 5.898438 -12.28125 4.765625 -11.789062 4.046875 -10.8125 C 3.328125 -9.84375 2.96875 -8.503906 2.96875 -6.796875 Z M 2.96875 -6.796875 "/></g></g></g><g fill="#e5d3b3" fill-opacity="1"><g transform="translate(166.638193, 198.351681)"><g><path d="M 13.6875 -6.796875 C 13.6875 -5.390625 13.445312 -4.164062 12.96875 -3.125 C 12.488281 -2.082031 11.785156 -1.269531 10.859375 -0.6875 C 9.929688 -0.101562 8.785156 0.1875 7.421875 0.1875 C 6.015625 0.1875 4.847656 -0.101562 3.921875 -0.6875 C 2.992188 -1.269531 2.300781 -2.085938 1.84375 -3.140625 C 1.382812 -4.191406 1.15625 -5.421875 1.15625 -6.828125 C 1.15625 -8.203125 1.382812 -9.410156 1.84375 -10.453125 C 2.300781 -11.503906 2.992188 -12.320312 3.921875 -12.90625 C 4.847656 -13.488281 6.023438 -13.78125 7.453125 -13.78125 C 8.804688 -13.78125 9.941406 -13.488281 10.859375 -12.90625 C 11.785156 -12.332031 12.488281 -11.519531 12.96875 -10.46875 C 13.445312 -9.425781 13.6875 -8.203125 13.6875 -6.796875 Z M 2.96875 -6.796875 C 2.96875 -5.085938 3.328125 -3.742188 4.046875 -2.765625 C 4.765625 -1.785156 5.890625 -1.296875 7.421875 -1.296875 C 8.960938 -1.296875 10.085938 -1.785156 10.796875 -2.765625 C 11.515625 -3.742188 11.875 -5.085938 11.875 -6.796875 C 11.875 -8.503906 11.519531 -9.84375 10.8125 -10.8125 C 10.101562 -11.789062 8.984375 -12.28125 7.453125 -12.28125 C 5.898438 -12.28125 4.765625 -11.789062 4.046875 -10.8125 C 3.328125 -9.84375 2.96875 -8.503906 2.96875 -6.796875 Z M 2.96875 -6.796875 "/></g></g></g><g fill="#e5d3b3" fill-opacity="1"><g transform="translate(181.474164, 198.351681)"><g><path d="M 11.765625 0 L 9.75 0 L 4.9375 -6.484375 L 3.546875 -5.265625 L 3.546875 0 L 1.84375 0 L 1.84375 -13.5625 L 3.546875 -13.5625 L 3.546875 -6.875 C 3.929688 -7.3125 4.316406 -7.742188 4.703125 -8.171875 C 5.097656 -8.597656 5.492188 -9.03125 5.890625 -9.46875 L 9.5625 -13.5625 L 11.546875 -13.5625 L 6.171875 -7.65625 Z M 11.765625 0 "/></g></g></g><g fill="#e5d3b3" fill-opacity="1"><g transform="translate(193.232761, 198.351681)"><g><path d="M 9.53125 -3.625 C 9.53125 -2.425781 9.09375 -1.488281 8.21875 -0.8125 C 7.351562 -0.144531 6.175781 0.1875 4.6875 0.1875 C 3.925781 0.1875 3.222656 0.128906 2.578125 0.015625 C 1.929688 -0.0976562 1.394531 -0.253906 0.96875 -0.453125 L 0.96875 -2.09375 C 1.425781 -1.882812 1.992188 -1.695312 2.671875 -1.53125 C 3.347656 -1.375 4.046875 -1.296875 4.765625 -1.296875 C 5.765625 -1.296875 6.523438 -1.488281 7.046875 -1.875 C 7.566406 -2.269531 7.828125 -2.804688 7.828125 -3.484375 C 7.828125 -3.921875 7.734375 -4.289062 7.546875 -4.59375 C 7.359375 -4.894531 7.03125 -5.171875 6.5625 -5.421875 C 6.09375 -5.679688 5.453125 -5.960938 4.640625 -6.265625 C 3.472656 -6.679688 2.597656 -7.191406 2.015625 -7.796875 C 1.429688 -8.410156 1.140625 -9.242188 1.140625 -10.296875 C 1.140625 -11.003906 1.320312 -11.617188 1.6875 -12.140625 C 2.050781 -12.660156 2.554688 -13.054688 3.203125 -13.328125 C 3.859375 -13.609375 4.613281 -13.75 5.46875 -13.75 C 6.207031 -13.75 6.882812 -13.679688 7.5 -13.546875 C 8.125 -13.410156 8.695312 -13.226562 9.21875 -13 L 8.6875 -11.53125 C 8.21875 -11.738281 7.703125 -11.910156 7.140625 -12.046875 C 6.585938 -12.179688 6.019531 -12.25 5.4375 -12.25 C 4.582031 -12.25 3.941406 -12.066406 3.515625 -11.703125 C 3.085938 -11.347656 2.875 -10.875 2.875 -10.28125 C 2.875 -9.820312 2.96875 -9.441406 3.15625 -9.140625 C 3.34375 -8.835938 3.648438 -8.5625 4.078125 -8.3125 C 4.515625 -8.0625 5.097656 -7.804688 5.828125 -7.546875 C 6.628906 -7.253906 7.304688 -6.9375 7.859375 -6.59375 C 8.410156 -6.257812 8.828125 -5.859375 9.109375 -5.390625 C 9.390625 -4.921875 9.53125 -4.332031 9.53125 -3.625 Z M 9.53125 -3.625 "/></g></g></g><g fill="#e5d3b3" fill-opacity="1"><g transform="translate(203.661636, 198.351681)"><g/></g></g><g fill="#e5d3b3" fill-opacity="1"><g transform="translate(208.885565, 198.351681)"><g><path d="M 3.546875 0 L 1.84375 0 L 1.84375 -13.5625 L 9.421875 -13.5625 L 9.421875 -12.0625 L 3.546875 -12.0625 L 3.546875 -7.265625 L 9.0625 -7.265625 L 9.0625 -5.75 L 3.546875 -5.75 Z M 3.546875 0 "/></g></g></g><g fill="#e5d3b3" fill-opacity="1"><g transform="translate(218.744547, 198.351681)"><g><path d="M 13.6875 -6.796875 C 13.6875 -5.390625 13.445312 -4.164062 12.96875 -3.125 C 12.488281 -2.082031 11.785156 -1.269531 10.859375 -0.6875 C 9.929688 -0.101562 8.785156 0.1875 7.421875 0.1875 C 6.015625 0.1875 4.847656 -0.101562 3.921875 -0.6875 C 2.992188 -1.269531 2.300781 -2.085938 1.84375 -3.140625 C 1.382812 -4.191406 1.15625 -5.421875 1.15625 -6.828125 C 1.15625 -8.203125 1.382812 -9.410156 1.84375 -10.453125 C 2.300781 -11.503906 2.992188 -12.320312 3.921875 -12.90625 C 4.847656 -13.488281 6.023438 -13.78125 7.453125 -13.78125 C 8.804688 -13.78125 9.941406 -13.488281 10.859375 -12.90625 C 11.785156 -12.332031 12.488281 -11.519531 12.96875 -10.46875 C 13.445312 -9.425781 13.6875 -8.203125 13.6875 -6.796875 Z M 2.96875 -6.796875 C 2.96875 -5.085938 3.328125 -3.742188 4.046875 -2.765625 C 4.765625 -1.785156 5.890625 -1.296875 7.421875 -1.296875 C 8.960938 -1.296875 10.085938 -1.785156 10.796875 -2.765625 C 11.515625 -3.742188 11.875 -5.085938 11.875 -6.796875 C 11.875 -8.503906 11.519531 -9.84375 10.8125 -10.8125 C 10.101562 -11.789062 8.984375 -12.28125 7.453125 -12.28125 C 5.898438 -12.28125 4.765625 -11.789062 4.046875 -10.8125 C 3.328125 -9.84375 2.96875 -8.503906 2.96875 -6.796875 Z M 2.96875 -6.796875 "/></g></g></g><g fill="#e5d3b3" fill-opacity="1"><g transform="translate(233.580518, 198.351681)"><g><path d="M 5.59375 -13.5625 C 7.269531 -13.5625 8.507812 -13.238281 9.3125 -12.59375 C 10.125 -11.957031 10.53125 -10.992188 10.53125 -9.703125 C 10.53125 -8.984375 10.394531 -8.382812 10.125 -7.90625 C 9.863281 -7.425781 9.523438 -7.039062 9.109375 -6.75 C 8.703125 -6.457031 8.269531 -6.234375 7.8125 -6.078125 L 11.53125 0 L 9.53125 0 L 6.25 -5.609375 L 3.546875 -5.609375 L 3.546875 0 L 1.84375 0 L 1.84375 -13.5625 Z M 5.484375 -12.078125 L 3.546875 -12.078125 L 3.546875 -7.046875 L 5.59375 -7.046875 C 6.6875 -7.046875 7.488281 -7.265625 8 -7.703125 C 8.507812 -8.140625 8.765625 -8.785156 8.765625 -9.640625 C 8.765625 -10.523438 8.492188 -11.148438 7.953125 -11.515625 C 7.421875 -11.890625 6.597656 -12.078125 5.484375 -12.078125 Z M 5.484375 -12.078125 "/></g></g></g><g fill="#e5d3b3" fill-opacity="1"><g transform="translate(245.396107, 198.351681)"><g/></g></g><g fill="#e5d3b3" fill-opacity="1"><g transform="translate(250.620037, 198.351681)"><g><path d="M 10.359375 0 L 8.71875 -4.203125 L 3.34375 -4.203125 L 1.734375 0 L 0 0 L 5.296875 -13.625 L 6.84375 -13.625 L 12.125 0 Z M 8.203125 -5.71875 L 6.6875 -9.828125 C 6.644531 -9.921875 6.578125 -10.097656 6.484375 -10.359375 C 6.398438 -10.628906 6.316406 -10.90625 6.234375 -11.1875 C 6.160156 -11.476562 6.097656 -11.703125 6.046875 -11.859375 C 5.941406 -11.460938 5.832031 -11.078125 5.71875 -10.703125 C 5.613281 -10.328125 5.523438 -10.035156 5.453125 -9.828125 L 3.90625 -5.71875 Z M 8.203125 -5.71875 "/></g></g></g><g fill="#e5d3b3" fill-opacity="1"><g transform="translate(262.758555, 198.351681)"><g><path d="M 1.84375 0 L 1.84375 -13.5625 L 3.546875 -13.5625 L 3.546875 -1.515625 L 9.484375 -1.515625 L 9.484375 0 Z M 1.84375 0 "/></g></g></g><g fill="#e5d3b3" fill-opacity="1"><g transform="translate(272.712523, 198.351681)"><g><path d="M 1.84375 0 L 1.84375 -13.5625 L 3.546875 -13.5625 L 3.546875 -1.515625 L 9.484375 -1.515625 L 9.484375 0 Z M 1.84375 0 "/></g></g></g><g fill="#e5d3b3" fill-opacity="1"><g transform="translate(282.666494, 198.351681)"><g/></g></g><g fill="#e5d3b3" fill-opacity="1"><g transform="translate(287.890423, 198.351681)"><g><path d="M 10.359375 0 L 8.71875 -4.203125 L 3.34375 -4.203125 L 1.734375 0 L 0 0 L 5.296875 -13.625 L 6.84375 -13.625 L 12.125 0 Z M 8.203125 -5.71875 L 6.6875 -9.828125 C 6.644531 -9.921875 6.578125 -10.097656 6.484375 -10.359375 C 6.398438 -10.628906 6.316406 -10.90625 6.234375 -11.1875 C 6.160156 -11.476562 6.097656 -11.703125 6.046875 -11.859375 C 5.941406 -11.460938 5.832031 -11.078125 5.71875 -10.703125 C 5.613281 -10.328125 5.523438 -10.035156 5.453125 -9.828125 L 3.90625 -5.71875 Z M 8.203125 -5.71875 "/></g></g></g><g fill="#e5d3b3" fill-opacity="1"><g transform="translate(300.028942, 198.351681)"><g><path d="M 7.734375 -7.15625 L 12.421875 -7.15625 L 12.421875 -0.515625 C 11.691406 -0.273438 10.953125 -0.0976562 10.203125 0.015625 C 9.453125 0.128906 8.601562 0.1875 7.65625 0.1875 C 6.25 0.1875 5.0625 -0.09375 4.09375 -0.65625 C 3.132812 -1.21875 2.40625 -2.019531 1.90625 -3.0625 C 1.40625 -4.113281 1.15625 -5.351562 1.15625 -6.78125 C 1.15625 -8.1875 1.429688 -9.410156 1.984375 -10.453125 C 2.535156 -11.503906 3.335938 -12.316406 4.390625 -12.890625 C 5.441406 -13.460938 6.707031 -13.75 8.1875 -13.75 C 8.945312 -13.75 9.664062 -13.679688 10.34375 -13.546875 C 11.019531 -13.410156 11.648438 -13.210938 12.234375 -12.953125 L 11.59375 -11.46875 C 11.113281 -11.675781 10.570312 -11.859375 9.96875 -12.015625 C 9.363281 -12.171875 8.738281 -12.25 8.09375 -12.25 C 6.46875 -12.25 5.203125 -11.757812 4.296875 -10.78125 C 3.390625 -9.800781 2.9375 -8.46875 2.9375 -6.78125 C 2.9375 -5.707031 3.109375 -4.753906 3.453125 -3.921875 C 3.804688 -3.085938 4.359375 -2.441406 5.109375 -1.984375 C 5.859375 -1.523438 6.84375 -1.296875 8.0625 -1.296875 C 8.65625 -1.296875 9.160156 -1.328125 9.578125 -1.390625 C 9.992188 -1.453125 10.375 -1.523438 10.71875 -1.609375 L 10.71875 -5.640625 L 7.734375 -5.640625 Z M 7.734375 -7.15625 "/></g></g></g><g fill="#e5d3b3" fill-opacity="1"><g transform="translate(313.858119, 198.351681)"><g><path d="M 9.421875 0 L 1.84375 0 L 1.84375 -13.5625 L 9.421875 -13.5625 L 9.421875 -12.0625 L 3.546875 -12.0625 L 3.546875 -7.828125 L 9.078125 -7.828125 L 9.078125 -6.34375 L 3.546875 -6.34375 L 3.546875 -1.5 L 9.421875 -1.5 Z M 9.421875 0 "/></g></g></g><g fill="#e5d3b3" fill-opacity="1"><g transform="translate(324.419962, 198.351681)"><g><path d="M 9.53125 -3.625 C 9.53125 -2.425781 9.09375 -1.488281 8.21875 -0.8125 C 7.351562 -0.144531 6.175781 0.1875 4.6875 0.1875 C 3.925781 0.1875 3.222656 0.128906 2.578125 0.015625 C 1.929688 -0.0976562 1.394531 -0.253906 0.96875 -0.453125 L 0.96875 -2.09375 C 1.425781 -1.882812 1.992188 -1.695312 2.671875 -1.53125 C 3.347656 -1.375 4.046875 -1.296875 4.765625 -1.296875 C 5.765625 -1.296875 6.523438 -1.488281 7.046875 -1.875 C 7.566406 -2.269531 7.828125 -2.804688 7.828125 -3.484375 C 7.828125 -3.921875 7.734375 -4.289062 7.546875 -4.59375 C 7.359375 -4.894531 7.03125 -5.171875 6.5625 -5.421875 C 6.09375 -5.679688 5.453125 -5.960938 4.640625 -6.265625 C 3.472656 -6.679688 2.597656 -7.191406 2.015625 -7.796875 C 1.429688 -8.410156 1.140625 -9.242188 1.140625 -10.296875 C 1.140625 -11.003906 1.320312 -11.617188 1.6875 -12.140625 C 2.050781 -12.660156 2.554688 -13.054688 3.203125 -13.328125 C 3.859375 -13.609375 4.613281 -13.75 5.46875 -13.75 C 6.207031 -13.75 6.882812 -13.679688 7.5 -13.546875 C 8.125 -13.410156 8.695312 -13.226562 9.21875 -13 L 8.6875 -11.53125 C 8.21875 -11.738281 7.703125 -11.910156 7.140625 -12.046875 C 6.585938 -12.179688 6.019531 -12.25 5.4375 -12.25 C 4.582031 -12.25 3.941406 -12.066406 3.515625 -11.703125 C 3.085938 -11.347656 2.875 -10.875 2.875 -10.28125 C 2.875 -9.820312 2.96875 -9.441406 3.15625 -9.140625 C 3.34375 -8.835938 3.648438 -8.5625 4.078125 -8.3125 C 4.515625 -8.0625 5.097656 -7.804688 5.828125 -7.546875 C 6.628906 -7.253906 7.304688 -6.9375 7.859375 -6.59375 C 8.410156 -6.257812 8.828125 -5.859375 9.109375 -5.390625 C 9.390625 -4.921875 9.53125 -4.332031 9.53125 -3.625 Z M 9.53125 -3.625 "/></g></g></g></svg>