<?xml version="1.0" standalone="no"?>
<!DOCTYPE svg PUBLIC "-//W3C//DTD SVG 20010904//EN"
 "http://www.w3.org/TR/2001/REC-SVG-20010904/DTD/svg10.dtd">
<svg version="1.0" xmlns="http://www.w3.org/2000/svg"
 width="500.000000pt" height="500.000000pt" viewBox="0 0 500.000000 500.000000"
 preserveAspectRatio="xMidYMid meet">

<g transform="translate(0.000000,500.000000) scale(0.100000,-0.100000)"
fill="#000000" stroke="none">
<path d="M0 2500 l0 -2500 2500 0 2500 0 0 2500 0 2500 -2500 0 -2500 0 0
-2500z m3500 2208 c0 -21 -139 -118 -235 -165 -90 -43 -197 -72 -267 -73 -20
0 -39 -4 -42 -9 -9 -14 39 -19 87 -10 23 4 95 8 160 9 224 0 426 -33 650 -107
200 -66 191 -73 -95 -72 -128 0 -254 4 -280 8 -53 9 -52 -1 6 -42 25 -18 41
-21 102 -18 91 3 126 -7 277 -76 301 -137 323 -144 600 -178 55 -7 64 -30 15
-38 -116 -21 -220 -30 -333 -30 -114 0 -139 3 -203 26 l-72 26 66 -68 c57 -59
72 -70 119 -80 166 -37 275 -148 482 -486 95 -155 129 -195 197 -231 53 -27
73 -54 42 -54 -33 0 -146 42 -201 75 -114 69 -192 159 -325 376 -46 75 -98
154 -117 175 -19 23 -5 -4 32 -61 87 -132 175 -314 225 -464 211 -630 100
-1312 -299 -1849 -81 -109 -269 -298 -379 -381 -247 -186 -524 -313 -822 -376
-105 -23 -160 -28 -336 -32 -298 -8 -443 12 -709 97 -112 36 -345 143 -345
159 0 24 24 19 108 -24 166 -84 344 -141 562 -182 136 -25 495 -25 635 1 490
89 894 321 1201 689 292 349 454 790 454 1236 0 329 -62 603 -200 887 -54 112
-197 341 -206 331 -2 -2 1 -28 7 -58 6 -30 14 -182 18 -339 6 -265 9 -288 29
-335 13 -27 30 -57 39 -67 13 -15 14 -21 4 -31 -19 -18 -111 87 -154 176 -57
118 -69 190 -72 462 -5 365 -21 401 -247 568 -42 31 -79 57 -82 57 -3 0 22
-37 55 -82 74 -103 158 -272 199 -402 44 -139 32 -144 -77 -31 -149 155 -190
220 -268 422 -75 194 -84 205 -184 254 -75 36 -336 129 -363 129 -6 0 15 -17
45 -37 31 -21 123 -101 205 -178 87 -82 177 -156 216 -179 36 -21 66 -42 66
-47 0 -15 -51 -22 -124 -16 -57 5 -89 15 -166 53 -91 45 -103 55 -275 229 -99
100 -195 192 -213 205 -32 21 -43 23 -215 22 -206 0 -340 -16 -517 -63 -541
-143 -1002 -515 -1258 -1016 -238 -467 -277 -1031 -105 -1532 17 -49 22 -76
15 -83 -14 -14 -33 26 -66 132 -59 195 -86 378 -86 590 0 229 30 417 99 629
271 825 1047 1381 1928 1381 84 0 98 3 126 24 38 28 124 72 181 93 77 27 177
43 393 63 119 11 219 22 221 25 11 11 72 5 72 -7z m-1361 -1227 c31 -16 95
-39 141 -51 112 -28 176 -64 219 -121 l34 -47 39 28 c50 36 114 50 236 50 135
0 226 15 283 47 27 14 49 30 49 35 0 4 4 8 9 8 5 0 22 -37 37 -81 20 -57 36
-85 51 -91 15 -8 42 -59 94 -177 39 -91 94 -213 120 -270 52 -111 56 -126 35
-153 -7 -10 -155 -68 -336 -133 -178 -64 -336 -123 -351 -131 -15 -8 -45 -14
-66 -14 -33 0 -45 7 -81 45 -31 33 -50 45 -71 45 -16 0 -36 3 -45 6 -11 4 -32
-11 -65 -45 l-49 -51 -449 0 c-336 0 -452 3 -461 12 -19 19 -15 49 37 278 77
340 89 380 129 420 31 31 37 46 57 148 13 62 30 123 39 136 15 23 16 23 77 9
34 -8 63 -12 66 -10 4 4 29 91 53 185 l11 43 51 -45 c29 -25 77 -59 107 -75z
m-800 -1404 c76 -27 94 -119 30 -155 -16 -9 -29 -19 -29 -22 0 -3 13 -13 30
-22 35 -20 47 -58 30 -99 -20 -47 -54 -59 -177 -59 l-108 0 2 182 c1 101 2
184 3 186 1 8 191 -1 219 -11z m385 -16 c129 -72 124 -262 -8 -322 -79 -36
-157 -20 -213 44 -133 152 46 377 221 278z m398 9 c20 0 79 -66 94 -105 32
-85 -8 -185 -90 -225 -149 -72 -310 72 -252 225 33 86 118 133 206 113 19 -4
38 -8 42 -8z m210 -55 l-3 -70 17 33 c39 76 103 115 173 104 28 -4 32 -8 27
-26 -3 -11 -6 -24 -6 -27 0 -3 -22 -4 -49 -1 -58 5 -105 -18 -134 -67 l-17
-30 47 -3 47 -3 58 -98 c32 -54 58 -101 58 -104 0 -2 -14 -3 -32 -1 -29 3 -38
12 -88 98 -81 137 -106 131 -98 -25 l3 -75 -30 0 -30 0 2 182 c1 101 2 184 3
186 0 2 12 2 28 0 27 -3 27 -3 24 -73z m328 -57 c0 -157 8 -182 61 -186 19 -2
60 1 92 6 62 10 80 3 91 -33 5 -19 0 -20 -79 -23 -90 -2 -134 10 -154 45 -9
15 -10 12 -11 -14 0 -30 -3 -33 -30 -33 l-30 0 0 185 0 185 30 0 30 0 0 -132z
m591 -55 l77 -183 -31 0 c-30 0 -34 5 -57 62 -14 34 -31 63 -38 66 -6 2 -43
-26 -81 -62 -80 -75 -118 -86 -147 -41 -24 36 -12 76 50 175 29 47 61 99 69
115 9 17 16 26 17 21 0 -5 -27 -60 -61 -122 -35 -67 -59 -123 -57 -136 5 -40
35 -32 96 26 58 56 87 67 110 44 11 -11 -41 120 -74 186 -19 38 -19 38 18 34
32 -3 34 -5 109 -185z m295 15 c88 -139 110 -167 113 -148 5 37 -6 272 -14
298 -6 17 -3 22 9 22 14 0 16 -21 16 -185 l0 -185 -33 0 c-30 0 -37 7 -84 83
-29 45 -78 120 -108 167 l-55 85 3 -150 c1 -82 6 -158 11 -167 6 -14 4 -18
-10 -18 -18 0 -19 10 -16 185 l3 185 28 0 c26 0 38 -15 137 -172z m414 147
c99 -57 107 -229 15 -315 -25 -23 -35 -25 -141 -28 l-114 -4 0 187 0 187 103
-4 c79 -2 110 -8 137 -23z m-3236 -398 c12 -9 17 -23 14 -42 -2 -25 -8 -31
-33 -33 -19 -3 -33 2 -42 14 -17 24 -17 30 7 54 24 24 30 24 54 7z m1166 -127
c14 -7 18 -20 16 -57 -1 -48 -1 -48 -38 -51 l-38 -3 0 54 c0 69 14 82 60 57z
m172 -7 c37 -33 16 -103 -32 -103 -53 0 -78 62 -40 100 24 24 47 25 72 3z
m158 7 c47 -25 26 -110 -28 -110 -36 0 -52 17 -52 54 0 51 38 78 80 56z m151
-23 l-21 -24 21 -27 c29 -37 16 -45 -15 -10 l-25 29 -1 -27 c0 -16 -4 -28 -10
-28 -5 0 -10 25 -10 55 0 30 5 55 10 55 6 0 10 -10 10 -22 0 -22 0 -22 27 4
33 33 46 28 14 -5z m224 23 c4 -6 -5 -10 -19 -10 -34 0 -34 -23 0 -38 38 -18
30 -56 -13 -60 -18 -2 -33 1 -33 5 0 5 12 9 27 8 35 0 41 22 9 35 -32 12 -43
35 -26 55 14 17 46 20 55 5z m145 0 c0 -5 -7 -10 -15 -10 -11 0 -15 -12 -15
-50 0 -27 -4 -50 -10 -50 -5 0 -10 23 -10 50 0 44 -3 50 -21 50 -11 0 -17 5
-14 10 3 6 24 10 46 10 21 0 39 -4 39 -10z m142 -7 c37 -33 16 -103 -32 -103
-53 0 -78 62 -40 100 24 24 47 25 72 3z m139 7 c20 -11 26 -45 9 -55 -6 -4 -4
-16 6 -31 9 -13 12 -24 6 -24 -5 0 -17 12 -27 26 -17 27 -30 24 -38 -11 -3
-11 -5 8 -6 43 -1 66 7 75 50 52z m149 0 c0 -5 -11 -10 -25 -10 -16 0 -25 -6
-25 -15 0 -9 9 -15 25 -15 14 0 25 -4 25 -10 0 -5 -11 -10 -25 -10 -37 0 -35
-37 3 -43 25 -4 25 -4 -5 -6 l-33 -1 0 60 0 60 30 0 c17 0 30 -4 30 -10z
m-2262 -172 c27 -27 7 -78 -29 -78 -21 0 -49 26 -49 45 0 35 53 58 78 33z
m226 -264 c30 -30 13 -74 -29 -74 -60 0 -59 88 2 90 6 0 19 -7 27 -16z m277
-225 c16 -30 -3 -69 -34 -69 -29 0 -47 17 -47 45 0 45 60 63 81 24z"/>
<path d="M3385 4675 c-5 -2 -92 -11 -193 -19 -268 -23 -373 -48 -492 -118
l-55 -33 185 -3 c227 -3 293 9 435 79 100 49 174 100 145 98 -8 0 -19 -2 -25
-4z"/>
<path d="M2874 4343 c235 -255 340 -330 495 -350 l46 -6 -62 46 c-34 25 -118
100 -186 166 -138 132 -217 189 -309 220 -34 12 -65 21 -68 21 -3 0 35 -44 84
-97z"/>
<path d="M3120 4420 c22 -15 162 -59 260 -82 66 -15 131 -21 290 -24 l205 -4
-70 25 c-144 52 -422 95 -615 95 -59 0 -80 -3 -70 -10z"/>
<path d="M3472 4205 c2 -5 30 -77 62 -159 67 -170 139 -286 235 -381 l61 -60
-23 70 c-59 171 -170 362 -282 480 -31 33 -55 56 -53 50z"/>
<path d="M3668 4125 c127 -94 187 -127 284 -159 68 -23 92 -26 210 -25 183 2
217 10 109 27 -100 16 -150 34 -346 124 -183 85 -250 108 -312 108 l-47 0 102
-75z"/>
<path d="M3934 3814 c20 -77 26 -155 26 -337 0 -224 13 -313 62 -415 16 -35
31 -62 32 -60 1 2 -1 125 -5 273 -9 348 -21 430 -75 517 -32 50 -49 60 -40 22z"/>
<path d="M4127 3719 c49 -52 96 -120 214 -313 65 -107 183 -230 259 -270 l55
-29 -32 34 c-17 19 -67 91 -110 161 -193 315 -294 428 -413 463 -21 6 -16 -2
27 -46z"/>
<path d="M1991 3503 c-28 -108 -40 -164 -46 -218 -8 -81 -54 -273 -66 -281 -7
-4 -8 8 -5 30 3 20 8 53 12 74 3 20 7 46 10 57 5 20 5 20 -10 1 -23 -28 -20
-9 5 33 l21 36 -26 -30 c-17 -20 -24 -24 -19 -11 5 14 3 17 -6 11 -10 -6 -11
-3 -2 14 14 25 23 28 14 4 -7 -19 -5 -18 17 11 10 13 10 17 3 12 -17 -10 -16
0 3 29 9 14 19 23 23 21 4 -3 7 4 7 14 0 12 -6 17 -18 15 -10 -2 -18 0 -18 4
0 4 -20 12 -45 18 l-45 10 -9 -36 c-42 -158 -82 -528 -59 -543 69 -44 271 -59
464 -33 128 17 189 16 237 -6 17 -8 24 -18 22 -31 -3 -15 -1 -17 9 -9 7 6 16
8 19 4 4 -3 7 -2 7 4 0 13 -40 56 -73 78 -15 10 -24 22 -20 29 4 6 -2 4 -12
-4 -17 -14 -18 -13 -12 4 6 16 5 17 -7 7 -12 -10 -13 -8 -9 11 6 23 6 23 -15
-2 -12 -14 -21 -20 -22 -13 0 6 5 15 10 18 6 3 10 10 10 15 0 10 -27 7 -37 -5
-5 -4 -1 -5 7 0 9 5 12 5 7 -1 -5 -5 -12 -9 -15 -9 -4 0 -13 -4 -19 -8 -9 -6
-11 -3 -6 10 6 16 5 17 -12 3 -10 -8 -26 -16 -37 -16 -10 -1 -19 -2 -20 -4 -2
-1 -15 -4 -30 -6 -30 -5 -35 4 -15 26 6 8 0 4 -15 -9 -25 -22 -27 -22 -27 -5
-1 49 -4 52 -55 59 -55 7 -139 40 -156 61 -7 7 8 3 32 -8 36 -18 70 -23 198
-29 85 -4 171 -12 191 -18 59 -18 125 -84 164 -164 l35 -72 -6 60 c-4 33 -11
68 -15 77 -12 23 -11 31 2 22 13 -8 -3 25 -34 71 l-21 30 24 -20 24 -20 -18
29 c-11 18 -13 25 -5 20 32 -20 39 -13 40 39 1 49 1 50 11 22 15 -43 16 -331
1 -345 -8 -9 -13 -7 -18 10 -6 17 -9 19 -16 9 -5 -8 -2 -20 8 -31 8 -9 13 -22
11 -28 -2 -7 -14 8 -26 33 -17 33 -32 49 -60 60 -100 40 -194 30 -370 -39 -63
-24 -133 -47 -155 -51 -23 -3 -44 -10 -47 -14 -3 -5 -48 2 -100 15 -52 13 -98
22 -102 19 -18 -10 -6 -34 25 -48 22 -10 24 -13 7 -9 -14 4 -29 8 -35 10 -5 2
-22 -24 -37 -57 l-27 -60 399 3 400 3 30 37 c38 46 85 62 154 54 62 -8 112
-36 128 -71 14 -31 23 -30 173 20 102 33 537 194 544 201 2 2 -20 69 -50 149
-29 79 -55 142 -57 140 -2 -2 1 -20 8 -40 7 -20 10 -38 7 -41 -6 -6 -76 164
-132 326 -26 74 -49 137 -51 139 -2 2 -14 -3 -27 -12 -53 -34 -127 -47 -277
-47 -161 0 -229 -13 -278 -55 -27 -22 -28 -27 -24 -84 2 -33 1 -73 -3 -88 l-8
-28 -8 35 c-5 19 -6 59 -3 88 6 46 3 58 -20 92 -39 59 -90 87 -214 120 -122
32 -193 64 -246 111 l-35 30 -10 -38z m113 -89 c17 -12 17 -14 4 -19 -19 -7
-68 16 -89 41 -8 11 2 7 26 -9 22 -15 44 -27 50 -27 5 0 -4 9 -21 19 -18 11
-36 25 -40 33 -7 12 14 0 70 -38z m-198 -109 c-2 -5 -8 -9 -14 -8 -6 2 -9 -3
-6 -10 2 -7 -10 -26 -28 -42 -18 -17 -27 -23 -21 -15 7 9 8 21 4 28 -4 8 -6
24 -3 37 3 20 10 23 38 22 19 -1 32 -6 30 -12z m555 -21 c7 -9 14 -39 15 -65
0 -41 -1 -46 -12 -31 -9 12 -9 19 -1 24 8 5 6 13 -7 26 -13 15 -14 21 -4 24 9
3 3 14 -17 32 -20 18 -23 24 -9 17 11 -5 27 -18 35 -27z m184 -20 c14 -6 12
-10 -12 -25 -15 -11 -22 -19 -15 -19 10 0 10 -3 0 -14 -7 -8 -17 -12 -23 -10
-5 3 -3 -1 6 -7 15 -11 15 -14 -5 -31 -21 -19 -21 -19 12 -3 49 24 55 13 6
-12 l-42 -21 2 46 c1 36 5 46 16 44 12 -3 12 -1 3 9 -10 10 -9 16 4 31 18 20
23 21 48 12z m-162 -154 c-5 -19 -7 -20 -15 -6 -5 9 -11 26 -13 37 -2 12 -10
28 -16 38 -6 9 2 2 19 -16 22 -23 29 -38 25 -53z m-443 -148 c-16 -3 -80 23
-80 32 0 1 22 -5 49 -13 30 -10 42 -17 31 -19z m1171 -61 c-28 -39 -112 -66
-161 -51 -19 6 -12 8 30 9 33 1 50 5 42 9 -9 6 -1 12 25 20 21 6 47 18 58 26
28 22 29 20 6 -13z m-551 -16 c0 -1 -19 -15 -42 -30 l-43 -28 25 27 c20 22 21
26 6 20 -12 -5 -17 -4 -13 3 5 8 67 15 67 8z m676 -17 c17 -21 17 -22 0 -6
-17 15 -21 14 -68 -19 -71 -52 -145 -71 -282 -75 -84 -2 -116 -6 -116 -15 0
-10 33 -13 133 -13 143 0 238 17 296 51 27 16 32 17 21 4 -17 -20 -72 -49
-125 -65 -22 -6 -128 -15 -235 -19 -184 -6 -198 -8 -254 -34 -42 -19 -55 -22
-45 -10 13 15 12 15 -11 3 -38 -20 -80 -53 -80 -62 0 -5 14 -2 30 7 17 9 30
13 30 10 0 -3 17 6 37 20 52 35 65 32 16 -4 -22 -16 -50 -42 -62 -57 -23 -29
-23 -29 -7 -2 24 40 20 43 -19 14 -25 -20 -33 -22 -28 -10 3 10 2 15 -3 12 -5
-4 -10 7 -11 24 -2 24 7 39 45 77 86 86 116 94 357 101 199 5 213 7 265 32 30
14 64 33 75 42 11 8 20 16 21 16 0 0 9 -10 20 -22z m-852 -33 c-5 13 -4 16 5
11 7 -5 10 -15 7 -23 -3 -8 -1 -24 6 -36 19 -36 -13 -5 -36 35 l-19 33 22 -19
c21 -19 21 -19 15 -1z m150 0 c-23 -17 -15 -19 23 -4 34 13 21 0 -32 -31 l-40
-24 20 24 20 23 -20 -6 c-17 -6 -17 -4 4 13 13 11 28 20 34 20 6 0 2 -7 -9
-15z m68 -26 c-24 -10 -58 -28 -75 -40 l-32 -21 33 30 c18 16 48 34 65 40 51
16 55 12 9 -9z m572 -79 c-48 -19 -257 -59 -362 -70 -63 -6 -136 -19 -163 -29
-27 -11 -47 -15 -44 -11 11 18 108 41 255 60 85 11 189 28 230 39 80 20 119
25 84 11z m100 -11 c-8 -14 -74 -45 -109 -52 l-30 -6 30 14 c17 8 23 15 15 15
-8 1 0 8 18 16 18 8 38 11 44 8 6 -4 8 -3 4 4 -3 5 0 12 6 15 17 6 30 -2 22
-14z m-974 -89 c25 -9 44 -22 42 -29 -1 -7 2 -10 7 -7 5 3 14 -1 21 -9 10 -12
8 -13 -9 -10 -31 6 -42 15 -35 27 4 6 2 8 -4 4 -6 -3 -31 -1 -57 6 -35 9 -42
14 -28 19 15 6 13 8 -7 8 -14 1 -32 6 -40 12 -22 14 54 0 110 -21z m48 14 c12
-8 27 -25 33 -37 9 -16 1 -13 -27 13 -21 19 -41 36 -43 38 -2 1 0 2 5 2 5 0
20 -7 32 -16z m-283 -24 c4 -6 -9 -10 -33 -10 -22 0 -55 -3 -73 -6 -19 -4 -31
-4 -27 1 4 4 31 11 60 15 29 4 56 8 60 9 4 0 10 -3 13 -9z m755 -2 c-41 -5
-106 -20 -145 -34 -73 -26 -125 -38 -125 -28 0 9 109 56 117 51 5 -3 33 1 63
8 30 7 80 13 110 13 53 -1 53 -1 -20 -10z m177 -4 c-3 -3 -12 -4 -19 -1 -8 3
-5 6 6 6 11 1 17 -2 13 -5z m-1302 -31 c26 -4 33 -8 20 -11 -22 -5 -122 16
-130 27 -2 5 12 4 33 0 20 -5 55 -12 77 -16z m1264 23 c-2 -3 -58 -12 -124
-20 -66 -9 -136 -20 -154 -26 -48 -13 -51 -5 -4 11 59 19 296 49 282 35z
m-769 -26 c-41 -5 -117 -17 -167 -29 -57 -13 -123 -20 -170 -20 l-78 2 95 8
c52 5 131 17 175 28 44 10 112 19 150 19 l70 -1 -75 -7z m96 -7 c-17 -4 -14
-8 14 -19 18 -8 31 -17 28 -20 -3 -2 -22 3 -42 12 -35 17 -33 35 4 33 9 -1 7
-3 -4 -6z m-566 -60 c43 -6 44 -7 15 -14 -16 -3 -70 -6 -120 -6 -65 1 -75 2
-35 5 l55 5 -50 12 -50 13 70 -4 c39 -3 90 -8 115 -11z m575 6 c13 -6 -4 -7
-50 -3 -38 4 -72 8 -74 10 -9 8 105 2 124 -7z m-377 -16 c-21 -2 -55 -2 -75 0
-21 2 -4 4 37 4 41 0 58 -2 38 -4z m310 -10 c-32 -2 -84 -2 -115 0 -32 2 -6 3
57 3 63 0 89 -1 58 -3z"/>
<path d="M1849 3283 c-13 -16 -12 -17 4 -4 9 7 17 15 17 17 0 8 -8 3 -21 -13z"/>
<path d="M2604 3244 c-18 -14 -18 -14 6 -3 31 14 36 19 24 19 -6 0 -19 -7 -30
-16z"/>
<path d="M2756 2755 c-9 -26 -7 -32 5 -12 6 10 9 21 6 23 -2 3 -7 -2 -11 -11z"/>
<path d="M2782 2761 c6 -21 24 -25 31 -6 4 8 2 15 -3 15 -6 0 -10 -6 -10 -12
0 -9 -4 -8 -11 2 -9 12 -10 12 -7 1z"/>
<path d="M2826 2753 c-6 -14 -5 -15 5 -6 7 7 10 15 7 18 -3 3 -9 -2 -12 -12z"/>
<path d="M2726 2744 c-4 -9 -4 -19 -1 -22 2 -3 7 3 11 12 4 9 4 19 1 22 -2 3
-7 -3 -11 -12z"/>
<path d="M2686 2734 c-4 -9 -4 -19 -1 -22 3 -3 5 0 5 7 0 7 4 9 10 6 6 -3 7 1
4 9 -8 20 -10 20 -18 0z"/>
<path d="M2661 2714 c0 -11 3 -14 6 -6 3 7 2 16 -1 19 -3 4 -6 -2 -5 -13z"/>
<path d="M2636 2705 c-9 -26 -7 -32 5 -12 6 10 9 21 6 23 -2 3 -7 -2 -11 -11z"/>
<path d="M2585 2650 c-4 -6 -11 -8 -16 -5 -5 4 -9 -2 -9 -11 0 -16 1 -16 20 1
11 10 20 20 20 22 0 7 -9 3 -15 -7z"/>
<path d="M2690 2570 c-8 -5 -10 -10 -5 -10 6 0 17 5 25 10 8 5 11 10 5 10 -5
0 -17 -5 -25 -10z"/>
<path d="M3242 3161 c18 -39 33 -69 35 -67 7 7 -44 130 -55 134 -6 2 3 -28 20
-67z"/>
<path d="M1641 2783 c-18 -98 -34 -189 -37 -203 -4 -22 -3 -23 5 -5 5 11 17
56 25 100 11 57 14 65 10 27 -3 -29 -7 -60 -11 -70 -5 -13 -3 -14 6 -6 7 7 13
40 14 77 1 36 5 63 10 60 4 -2 7 8 8 24 0 15 3 61 5 101 3 39 3 72 1 72 -2 0
-18 -80 -36 -177z"/>
<path d="M2140 2856 c-12 -19 -12 -20 4 -6 23 18 49 22 43 6 -6 -15 30 -16 52
-2 11 7 13 5 7 -9 -5 -15 -4 -16 9 -5 17 14 21 35 5 25 -5 -3 -10 -3 -10 2 0
4 -22 8 -49 9 -39 0 -51 -4 -61 -20z"/>
<path d="M2280 2859 c0 -5 5 -7 10 -4 6 3 10 8 10 11 0 2 -4 4 -10 4 -5 0 -10
-5 -10 -11z"/>
<path d="M1615 2800 c-3 -5 -1 -10 4 -10 6 0 11 5 11 10 0 6 -2 10 -4 10 -3 0
-8 -4 -11 -10z"/>
<path d="M1605 2750 c-3 -5 -1 -10 4 -10 6 0 11 5 11 10 0 6 -2 10 -4 10 -3 0
-8 -4 -11 -10z"/>
<path d="M1690 2749 c0 -5 5 -7 10 -4 14 9 12 -8 -2 -25 -7 -8 -3 -6 10 5 17
14 19 21 10 27 -18 11 -28 10 -28 -3z"/>
<path d="M2315 2740 c-3 -5 -2 -10 4 -10 5 0 13 5 16 10 3 6 2 10 -4 10 -5 0
-13 -4 -16 -10z"/>
<path d="M1764 2719 c0 -10 5 -15 10 -12 5 4 7 -2 3 -13 -6 -17 -6 -17 5 -3 7
9 21 15 31 13 9 -1 15 2 11 7 -3 5 -10 7 -15 4 -5 -4 -9 -2 -9 3 0 5 -8 12
-18 14 -12 4 -18 -1 -18 -13z"/>
<path d="M2350 2735 c0 -7 30 -13 34 -7 3 4 -4 9 -15 9 -10 1 -19 0 -19 -2z"/>
<path d="M2407 2733 c-4 -3 -7 -11 -7 -17 0 -6 5 -5 12 2 6 6 9 14 7 17 -3 3
-9 2 -12 -2z"/>
<path d="M1835 2691 c-3 -10 -15 -27 -27 -37 -14 -12 -18 -14 -13 -4 7 13 6
13 -7 2 -11 -9 -18 -10 -23 -2 -3 6 -11 8 -16 5 -11 -7 -12 7 -1 21 4 5 -2 0
-14 -11 -17 -16 -19 -21 -7 -28 8 -5 21 -6 29 -3 8 3 14 1 14 -4 0 -5 29 -8
65 -8 49 1 68 5 75 17 7 12 9 12 10 2 0 -11 3 -11 15 -1 8 7 15 9 15 4 1 -5
12 5 26 21 25 29 25 29 19 5 -7 -24 -6 -24 8 -6 16 22 47 30 47 13 0 -6 8 -4
17 6 9 9 13 20 9 24 -4 4 -11 1 -16 -7 -9 -13 -10 -13 -10 0 0 12 -2 13 -9 1
-7 -11 -9 -11 -14 0 -4 12 -7 11 -16 -1 -6 -8 -11 -11 -11 -6 0 5 -7 3 -15 -4
-10 -9 -15 -9 -15 -1 0 19 -15 12 -25 -11 -6 -14 -19 -23 -32 -23 -12 0 -25
-4 -30 -9 -5 -5 -2 -6 6 -1 10 6 12 4 6 -4 -5 -9 -11 -9 -17 -3 -7 7 -5 18 6
33 9 13 16 28 16 34 0 5 -5 3 -10 -5 -5 -8 -10 -10 -10 -5 0 19 -39 15 -45 -4z
m15 -23 c-11 -22 -11 -22 9 2 11 14 21 20 21 13 0 -6 -5 -15 -11 -18 -6 -4 -8
-13 -6 -19 3 -7 -1 -13 -9 -13 -8 0 -14 5 -14 10 0 5 -7 4 -16 -4 -10 -8 -8 0
6 25 24 40 39 43 20 4z m112 -10 c-7 -7 -12 -8 -12 -2 0 14 12 26 19 19 2 -3
-1 -11 -7 -17z"/>
<path d="M3461 2694 c0 -11 3 -14 6 -6 3 7 2 16 -1 19 -3 4 -6 -2 -5 -13z"/>
<path d="M1692 2688 c-15 -15 -16 -38 -1 -38 6 0 9 6 6 14 -3 7 0 19 6 25 6 6
9 11 6 11 -3 0 -10 -5 -17 -12z"/>
<path d="M1926 2683 c-6 -14 -5 -15 5 -6 7 7 10 15 7 18 -3 3 -9 -2 -12 -12z"/>
<path d="M1585 2671 c-3 -5 0 -13 6 -17 7 -4 9 -3 5 4 -3 5 0 13 6 15 9 4 10
6 1 6 -6 1 -14 -3 -18 -8z"/>
<path d="M1579 2623 c-13 -16 -12 -17 4 -4 9 7 17 15 17 17 0 8 -8 3 -21 -13z"/>
<path d="M3251 2604 c0 -11 3 -14 6 -6 3 7 2 16 -1 19 -3 4 -6 -2 -5 -13z"/>
<path d="M1557 2533 c-4 -3 -7 -11 -7 -17 0 -6 5 -5 12 2 6 6 9 14 7 17 -3 3
-9 2 -12 -2z"/>
<path d="M1550 2490 c-9 -6 -10 -10 -3 -10 6 0 15 5 18 10 8 12 4 12 -15 0z"/>
<path d="M1539 2453 c-13 -16 -12 -17 4 -4 9 7 17 15 17 17 0 8 -8 3 -21 -13z"/>
<path d="M1836 2423 c-6 -14 -5 -15 5 -6 7 7 10 15 7 18 -3 3 -9 -2 -12 -12z"/>
<path d="M1976 2423 c-6 -14 -5 -15 5 -6 7 7 10 15 7 18 -3 3 -9 -2 -12 -12z"/>
<path d="M1170 1900 l0 -170 40 0 c49 0 117 26 130 51 37 68 -43 129 -109 82
-18 -12 -23 -13 -19 -2 2 7 28 25 58 40 63 31 80 51 80 96 0 55 -28 73 -110
73 l-70 0 0 -170z"/>
<path d="M1537 2040 c-103 -81 -4 -291 138 -294 57 -1 94 32 102 93 18 134
-148 273 -240 201z"/>
<path d="M1941 2034 c-60 -50 -49 -154 23 -230 55 -56 112 -73 164 -47 77 38
79 146 4 234 -61 71 -137 89 -191 43z"/>
<path d="M3780 1900 l0 -170 53 0 c101 0 150 58 149 176 -1 111 -47 164 -143
164 l-59 0 0 -170z"/>
<path d="M1850 1515 c0 -8 9 -15 20 -15 11 0 20 7 20 15 0 8 -9 15 -20 15 -11
0 -20 -7 -20 -15z"/>
<path d="M1850 1460 c0 -23 22 -27 39 -7 13 16 5 27 -21 27 -11 0 -18 -7 -18
-20z"/>
<path d="M1996 1515 c-17 -45 6 -82 44 -70 17 5 21 13 18 43 -3 32 -7 37 -29
40 -17 2 -29 -3 -33 -13z"/>
<path d="M2167 1523 c-4 -3 -7 -21 -7 -39 0 -24 5 -34 20 -39 37 -12 61 25 44
69 -6 16 -45 22 -57 9z"/>
<path d="M2816 1515 c-17 -45 6 -82 44 -70 17 5 21 13 18 43 -3 32 -7 37 -29
40 -17 2 -29 -3 -33 -13z"/>
<path d="M2980 1510 c0 -13 7 -20 20 -20 13 0 20 7 20 20 0 13 -7 20 -20 20
-13 0 -20 -7 -20 -20z"/>
</g>
</svg>
